<svg id="Layer_1" data-name="Layer 1" xmlns="http://www.w3.org/2000/svg" viewBox="0 0 1440 600"><defs><style>.cls-1{fill:#a6ddd3;}.cls-2{fill:#e7ca59;}.cls-3{fill:#ed8e41;opacity:0.36;}.cls-4,.cls-5{fill:#a34d24;}.cls-4{opacity:0.16;}.cls-5{opacity:0.48;}.cls-6{fill:#452408;}.cls-7{fill:#4d4b43;}.cls-8{fill:#7f7f77;}.cls-9{fill:#4d4d48;}.cls-10,.cls-9{opacity:0.65;}.cls-10,.cls-13{fill:#5e5e58;}.cls-11{fill:#babaaf;opacity:0.64;}.cls-12{fill:#f6f2f0;}.cls-13{opacity:0.21;}.cls-14{fill:#151000;}.cls-15,.cls-22,.cls-23{fill:#fff;}.cls-15{opacity:0.5;}.cls-16{fill:#75352b;}.cls-17{fill:#5d2113;opacity:0.69;}.cls-18{fill:#357c68;}.cls-19{fill:#2a4f3d;opacity:0.55;}.cls-20{fill:#81a69b;opacity:0.49;}.cls-21{fill:none;}.cls-23{font-size:64px;font-family:Arial-Black, Arial Black;letter-spacing:0.08em;}</style></defs><title>Artboard 2 copy</title><rect class="cls-1" x="-7.88" y="-383.09" width="1446.34" height="1446.34"/><rect class="cls-2" x="-7.88" y="451.91" width="1446.34" height="611.34"/><path class="cls-3" d="M826.71,887.41c-1.47,20.22-20,34.51-37.63,44.66-78.85,45.53-170.18,63.7-260,78.59-176.86,29.37-359,48.43-536.94,35.18V491.22Q113,486.75,234,492.38q52.94,2.47,105.76,6.86,51.47,4.29,102.78,10.41c10.5,1.27,21.46,2.78,31.06,6.89h0a45.09,45.09,0,0,1,12.27,7.6c11.63,10.24,14.92,31.22,2.51,40.44-6.71,5-15.67,5.21-24,5.21q-64.35.13-128.67.23c-25.8,0-52.53.29-75.93,11.17s-42.47,35.55-38.25,61q104.62-.86,209.23-1.67c10.59-.09,22.45.31,29.86,7.89,8.27,8.48,7,23.2-.44,32.46l-.32.4c-7.69,9.23-19.93,13.45-31.85,14.87-22.67,2.72-45.9-3.21-68.35,1-20.83,3.87-41.77,22.47-38.82,42.43a24.66,24.66,0,0,0,1.1,4.63c4.45,13.28,18.77,21.15,32.69,22.56,8.79.87,17.56-.29,26.23-2.05,5.09-1,10.19-2.26,15.22-3.41,134.22-30.78,280.82-3.21,394.68,74.25C809,847.92,828.3,865.36,826.71,887.41Z"/><path class="cls-4" d="M744.88,521.55C756.06,526,769,527,781.55,527.82c97.61,6.51,198,11.39,291.79-10.38,17.69-4.1,38.84-14.21,34.29-28-4-12-24-15-40.08-15.53Q947,470.15,826.31,475.93c-21.79,1.05-61-4-81.29,2.49C719.24,486.66,721.33,512.09,744.88,521.55Z"/><path class="cls-4" d="M1391.89,592.58c15.44-3,31.06-5.81,46.57-7.92V686.25c-46.08-3.82-92-9.84-137.84-15.85-7.52-1-15.44-2.17-21.58-6.34h0a20.52,20.52,0,0,1-2.63-2.08,21.87,21.87,0,0,1-2.23-2.4c-5.09-6.48-5.69-15.45-3.15-23.72a35,35,0,0,1,10.33-16c12.15-10.35,28.87-13,44.66-15.33C1347.05,601.52,1369.3,596.89,1391.89,592.58Z"/><path class="cls-5" d="M363.49,555.47c3.81,4.27,3.34,7.1,2,7.8s-10.76-1-10.76-1,4-.75,5.47-3.55S363.49,555.47,363.49,555.47Z"/><path class="cls-6" d="M355.91,562.46l10-.19s.23.74-.43,3.37-2.48,3.06-2.48,3.06Z"/><path class="cls-7" d="M1059,360.05s29,119.82,30.49,130.61-20.69,12.75-37.27,13.74-48.4-18.64-47-18.64S1059,360.05,1059,360.05Z"/><path class="cls-7" d="M821.81,499.31s-16,6.87-32.91,3.43-26.8-17.16-26.8-17.16-1.28-103.49-3.7-119.68-13-37.56-8.71-54.93,55.18-14,72.12,30.75S821.81,499.31,821.81,499.31Z"/><path class="cls-8" d="M927.82,402.7c-65.86-.49-104.09-29.92-134.11-57.39-21.56-19.77-40.18-35.73-48.54-52.24a39.92,39.92,0,0,1-4.67-19.87c.38-9.23,3.26-22,7.87-34.75.11-.27.17-.54.27-.81,1.09-2.93,2.23-5.81,3.48-8.63a2.88,2.88,0,0,1,.38-.87c7.55-17,17.92-31.71,28.67-33.39,8.41-1.31,14.6-1.36,20.41-.38.93.16,1.79.32,2.66.54,8.58,1.9,17.16,5.92,32.09,11.13,26.61,9.28,52.78-15.69,107-14.72,26.23.49,50.39.22,71.94,8.53,23,8.69,43,27,59.24,66C1105.91,341.4,993.62,403.18,927.82,402.7Z"/><path class="cls-9" d="M927.82,402.7c-65.86-.49-104.09-29.92-134.11-57.39-21.56-19.77-40.18-35.73-48.54-52.24-3.09-16.5-3.58-33.22,3.2-54.62.11-.27.17-.54.27-.81a62.62,62.62,0,0,1,3.48-8.63,2.88,2.88,0,0,1,.38-.87c14.06-28.67,41.54-33.07,49.08-33.77,1.31-.11,2-.11,2-.11l.65.65c21.12,21.12-4.18,43.05,6.25,73.35,10.53,30.57,68.68,78.08,117,82.2s129.88-54.94,96.59-124.06c-4.83-10-7.65-18.84-8.85-26.55,23,8.69,43,27,59.24,66C1105.91,341.4,993.62,403.18,927.82,402.7Z"/><path class="cls-8" d="M853.76,511.07s-21.28,5.43-38.22,5.43c-15.86,0-25.41-12.06-26.55-13.58-.06-.16-.11-.16-.11-.16V403.67c0-21.61-40.07-44.79-33.88-101.53A91.64,91.64,0,0,1,757.33,289c10.26-39,41.27-16.73,41.27-16.73,22.26,34.81,55.16,47.3,62.87,69.5S853.76,511.07,853.76,511.07Z"/><path class="cls-10" d="M853.76,511.07s-21.28,5.43-38.22,5.43c-15.86,0-25.41-12.06-26.55-13.58,1,.76,12.27,8.85,32.79-3.63,21.66-13.09,7.44-33.07,10.75-76.67s-2.5-71.29-17.48-98.76c-12.87-23.56-39.31-45.34-57.72-34.91,10.26-39,41.27-16.73,41.27-16.73,22.26,34.81,55.16,47.3,62.87,69.5S853.76,511.07,853.76,511.07Z"/><path class="cls-8" d="M726.4,320.43c-21.34,5.21-39.69-6-78.95,21.66S562.92,369.29,541.58,362s-32.41-15.15-35.84-22.48.44-5.22,5.54-9.94.87-12.54,5.16-11.67c1.25.21,3,2,5.1,4.4,5.05,5.59,12.38,14.6,22.1,15.8,3.31.43,7.93,1.08,13.3,1.3,17.11.81,41.21-2.77,49.79-32.8C618,267.17,626.61,236.49,650,213.74c11.13-10.86,24.38-14.39,35.24-15a65.59,65.59,0,0,1,20.9,1.85c2.88-.11,5.7,0,8.31.11a3.18,3.18,0,0,0,.6,0h0c30.3,2,44,19.55,46.75,40.56C764.84,264.23,747.74,315.27,726.4,320.43Z"/><path class="cls-11" d="M714.33,200.83c-6.14-.33-54-1.42-72.38,41.1-19.65,45.5-12.54,61.89-36.1,83.78s-31.17,16.77-45.45,15.74a5.47,5.47,0,0,1-3.53-1.95c17.11.81,41.21-2.77,49.79-32.8,11.24-39.42,19.87-70.09,43.22-92.84,11.13-10.86,24.38-14.39,35.24-15a65.59,65.59,0,0,1,20.9,1.85A81.2,81.2,0,0,1,714.33,200.83Z"/><path class="cls-10" d="M726.33,320.55c-21.34,5.21-39.69-6-79,21.66s-84.53,27.2-105.87,19.87-32.42-15.15-35.84-22.48.44-5.21,5.54-9.93.87-12.54,5.16-11.67c1.25.21,3,2,5.1,4.39-1.68,6.9-2.38,13.47,2.18,17,12.43,9.72,43.76,26.93,86.92-3.21s31.33-30.67,47.94-49.3,36.65-6.35,47.46-41.31c8.25-26.61,2.12-40.24-20.85-46.7a65.59,65.59,0,0,1,20.9,1.85c36.6-1.14,52.72,17.75,55.71,40.72S747.67,315.39,726.33,320.55Z"/><path class="cls-8" d="M792.46,258.7c-15.36,24.22-.38,38.07-18.73,60.54s-46.53,42.84-58,32.47c-6.74-6-6.63-17.81-7.39-32.19a155,155,0,0,0-1.95-19.12,94.62,94.62,0,0,0-3.91-14.87C692.18,257,677,244.26,684.52,222.82,697,187.47,740.93,179.05,771.88,182c16.83,1.57,29.76,6.46,31.71,12.27C809.13,210.71,807.83,234.49,792.46,258.7Z"/><path class="cls-8" d="M1077.35,338.14c-12.11,44.14-36.76,164.3-36.76,164.3s-5.81,6.35-29.54,7.33-33.39-14.23-33.39-14.23l-1.36-6.79c-5.21-26.11-23-121.4-18-175.64,1.9-21,7.92-37.08,16.29-49.3,17-24.71,43.7-33.28,66-32.63C1074,232.21,1089.45,294,1077.35,338.14Z"/><path class="cls-12" d="M673.9,327.21s-73.57,37.3-115.71-39.69c0,0-1.9-6.95,2.45-4.45a14.78,14.78,0,0,1,2,1.46c6.79,5.92,18.35,25,53.43,27.48s41.43-15.15,41.43-15.15S664,298,670,309.57,673.9,327.21,673.9,327.21Z"/><path class="cls-13" d="M673.9,327.21s-73.57,37.3-115.71-39.69c0,0-1.9-6.95,2.45-4.45,7.38,8.58,16.45,25.73,31.27,30.46,20.47,6.46,44.14,11.78,61.63,6s3.91-22.64,3.91-22.64S664,298,670,309.57,673.9,327.21,673.9,327.21Z"/><path class="cls-10" d="M792.46,258.7c-15.36,24.22-.38,38.07-18.73,60.54s-46.53,42.84-58,32.47c-9.5-8.52-5.38-28.56-9.34-51.31a23.46,23.46,0,0,1,8,15.59C716,330.59,741,328.85,731,301.22s-25-55.65,9.45-44,36.32-3.37,54.62-30c14.87-21.61,5.64-34.48-23.19-45.28,16.83,1.57,29.76,6.46,31.71,12.27C809.13,210.71,807.83,234.49,792.46,258.7Z"/><path class="cls-10" d="M1077.35,338.14c-12.11,44.14-36.76,164.3-36.76,164.3s-5.81,6.35-29.54,7.33-33.39-14.23-33.39-14.23l-1.36-6.79c7.77,3.1,20.91,6.25,28.94-3,12-13.79,10.48-104.47,14.17-161.91,2.94-45.61-18.35-66.19-44.84-60.05,17-24.71,43.7-33.28,66-32.63C1074,232.21,1089.45,294,1077.35,338.14Z"/><path class="cls-11" d="M771.88,182S736,179.76,714.33,210.6s0,105.39,0,105.39a35.91,35.91,0,0,1-6,3.53,155,155,0,0,0-1.95-19.12,94.62,94.62,0,0,0-3.91-14.87C692.18,257,677,244.26,684.52,222.82,697,187.47,740.93,179.05,771.88,182Z"/><path class="cls-14" d="M668.93,250.83c-.26.22-1.58,1.25-2.49,2l-.07.08a2.48,2.48,0,0,1-.48.32,2.27,2.27,0,0,1-.4.26,4.71,4.71,0,0,1-2.41.77,4.76,4.76,0,1,1,0-9.51,4.87,4.87,0,0,1,2.34.7s.87.69,1.31,1.06l.19.18a8.38,8.38,0,0,0,1.9,2.05A1.37,1.37,0,0,1,668.93,250.83Z"/><path class="cls-15" d="M666.36,248.13a1.87,1.87,0,1,1-1.87-1.87A1.86,1.86,0,0,1,666.36,248.13Z"/><path class="cls-16" d="M1244.62,471.45v.06c.33,22.05,13.89,15,13.89,29.25v9.4l12,4.27h-42.08s9.23-2.7,9.23-11.3c0-8.33-8.55-3.89-9.17-16.54a11.56,11.56,0,0,1-.06-1.47v-77c0-23.12,27.79-27.79,27.79-46.19v-68.4h17.73V360c0,30.1-29.31,43-29.31,53.95Z"/><path class="cls-16" d="M1319.1,298.58s-3.88,17.61-18.51,29.36c-9.79,7.82-21,10.58-27.34,11.59a51.16,51.16,0,0,1-5.12.51l-3-2.76c11.93-1.12,38.2-15.24,39.72-35.55,0,0,1.63-4.5,4.28-5.85a3.29,3.29,0,0,1,1.51-.39C1314.09,295.49,1319.1,298.58,1319.1,298.58Z"/><path class="cls-16" d="M1262,318.55v4.28a21.94,21.94,0,0,1-5.8,1h0c-4.9.34-12.55-.4-21.94-5.29-16.6-8.55-30.89-39.1-30.89-39.1h19.3s-3.09,20.7,16.2,32.46c7.54,4.56,12.72,6.58,16.2,7.32C1260.54,320.46,1262,318.55,1262,318.55Z"/><path class="cls-17" d="M1273.93,293.52V360c0,30.1-29.31,43-29.31,53.95v51.76c-1-1.86-2.76-3.49-4.17-5.18-4.16-5.06-5-12-5.73-18.56-1.24-11.42-2.42-23.41,1.8-34.1,2.92-7.36,8.26-13.55,13.89-19.12,3.66-3.55,7.48-7,10.18-11.31s4.17-9.73,2.48-14.51c-1.24-3.44-4-7-2.65-10.35.68-1.69,2.25-2.82,3.38-4.22,2.36-2.93,2.53-7,2.64-10.69.34-10.75.68-21.55-1.4-32.07-.79-4-2-8-1.92-12.09Z"/><path class="cls-17" d="M1319.1,298.58s-3.88,17.61-18.51,29.36c-9.79,7.82-21,10.58-27.34,11.59,1.74-3.26,4.78-4.44,13.39-8.43,10.41-4.84,13.73-13,17.83-16.71s8.16-7.26,5.23-12.72a8.73,8.73,0,0,1-.61-5.79,3.29,3.29,0,0,1,1.51-.39C1314.09,295.49,1319.1,298.58,1319.1,298.58Z"/><path class="cls-17" d="M1256.2,323.84h0c-1.46-.34-22.17-4.61-30-15.75-5.12-7.26-9.28-20.14-11.59-28.64h8.1s-3.09,20.7,16.2,32.46c7.54,4.56,12.72,6.58,16.2,7.32Z"/><path class="cls-18" d="M1415.18,279.45c.79,12.88-6.58,17.95-15.8,17.95h-60.59a53.14,53.14,0,0,1-23.18,5.51H1256.2c-30.49,0-39-16-39-16s-3.54,8.61-36.68,8.61-34.32-21.55-34.32-21.55-22.39-5.46-22.39-33.64a67.48,67.48,0,0,1,.45-7.77c3.21-28.29,24.31-35.49,38.54-35.49h88.38c33.92,0,33.19,18.67,33.19,18.67h38.53c17.39,0,20.09,20.31,20.09,20.31h35.89a11.41,11.41,0,0,1,1.46.06c15.47,1.52,20.93,26.95,20.93,26.95S1414.4,266.51,1415.18,279.45Z"/><path class="cls-17" d="M1246.42,507.91c2.7-7.54-2-16.82-9.57-19.19-2.42-.73-4.95-.84-7.25-1.68a9.84,9.84,0,0,1-1.13-.45,11.56,11.56,0,0,1-.06-1.47v-8.38a16.35,16.35,0,0,1,6.31-1.57c3.6-.23,8-1,9.9-3.66.33,22.05,13.89,15,13.89,29.25v9.4l12,4.27h-30.15C1242.87,513,1245.18,511.28,1246.42,507.91Z"/><path class="cls-19" d="M1415.18,279.45c.79,12.88-6.58,17.95-15.8,17.95h-60.59a53.14,53.14,0,0,1-23.18,5.51H1256.2c-30.49,0-39-16-39-16s-3.54,8.61-36.68,8.61-34.32-21.55-34.32-21.55-22.39-5.46-22.39-33.64a67.48,67.48,0,0,1,.45-7.77c7.66,20.2,30.5,22.06,30.5,22.06s.73,22.16,21.94,19.24,36-15.92,36-15.92.34,20.08,22.67,20.08h85.45c9.29,0,13.34-16,13.34-16s-3,13.39,19.69,13.39,38.64-2.25,39.77-12.26-1.86-19.69-10.41-23.4A79,79,0,0,0,1371.3,236h7.6c16.6,0,22.39,27,22.39,27S1414.4,266.51,1415.18,279.45Z"/><path class="cls-20" d="M1380.36,236.08c-1.29,2.19-3.82,3.71-7.54,4.39-8.43,1.52-36,3.71-36,3.71s-7.09-17.44-17.72-17.44H1277S1274.38,210,1262,210h-94.23c-34.54,0-43.49,22.5-43.49,22.5,3.21-28.29,24.31-35.49,38.54-35.49h88.38c33.92,0,33.19,18.67,33.19,18.67h38.53c17.39,0,20.09,20.31,20.09,20.31h35.89A11.41,11.41,0,0,1,1380.36,236.08Z"/><rect class="cls-21" x="-6.34" y="-383.09" width="1446.34" height="1446.34"/><rect class="cls-22" x="220.88" y="200.97" width="90.57" height="90.58" rx="45.29" ry="45.29"/><text class="cls-23" transform="translate(102.57 147.75)">ELEPHANT</text></svg>