<svg xmlns="http://www.w3.org/2000/svg" xmlns:xlink="http://www.w3.org/1999/xlink" viewBox="0 0 1440 600"><defs><style>.cls-1{isolation:isolate;}.cls-2{fill:#00a9c7;}.cls-3{fill:#fdc00f;}.cls-4{fill:#ffd36f;}.cls-4,.cls-7{opacity:0.25;}.cls-10,.cls-13,.cls-4,.cls-8{mix-blend-mode:multiply;}.cls-5{fill:url(#Degradado_sin_nombre_2);}.cls-12,.cls-16,.cls-6{fill:#fff;}.cls-7{fill:#5b2689;}.cls-8{opacity:0.45;fill:url(#Degradado_sin_nombre_73);}.cls-9{fill:#fd5959;}.cls-10,.cls-14{fill:#c0c4c6;}.cls-11{fill:#0571cc;}.cls-12{opacity:0.3;}.cls-15{fill:#1d262b;}.cls-16{font-size:64px;font-family:Arial-Black, Arial Black;letter-spacing:0.08em;}</style><linearGradient id="Degradado_sin_nombre_2" x1="728.56" y1="437.21" x2="728.56" y2="726.31" gradientUnits="userSpaceOnUse"><stop offset="0" stop-color="#ff8662"/><stop offset="0.18" stop-color="#ec7e5e"/><stop offset="0.5" stop-color="#d17359"/><stop offset="0.78" stop-color="#c16c56"/><stop offset="1" stop-color="#bb6a55"/></linearGradient><linearGradient id="Degradado_sin_nombre_73" x1="589.8" y1="430.71" x2="589.8" y2="732.79" gradientUnits="userSpaceOnUse"><stop offset="0" stop-color="#ff2c62"/><stop offset="0.16" stop-color="#e33a74"/><stop offset="0.41" stop-color="#bd4d8c"/><stop offset="0.64" stop-color="#a25b9d"/><stop offset="0.84" stop-color="#9263a7"/><stop offset="1" stop-color="#8c66ab"/></linearGradient></defs><title>Artboard 2</title><g class="cls-1"><g id="Layer_1" data-name="Layer 1"><rect class="cls-2" x="-196.55" y="-16.87" width="1850.23" height="616.74"/><path class="cls-3" d="M-196.55,478.84H1653.68v-49c-13.13-3.54-33.22-7-46.78-8.92-36.82-5.35-76.39-11.26-112.29-1.75-29.87,7.91-62.27,18-93,26.68-13,3.68-26.76,8.82-40.66,13.57-24.3-9.32-48.54-18.6-72.65-27.46-101.73-37.37-225.69-83.11-331.23-53.52-65.24,18.3-131.34,39.85-195.19,62.2-7.66,2.68-15.52,5.13-23.48,7.5-15.29-14.64-36.44-25.59-58.37-37-36.76-19.12-73.09-38-110.26-55.57C526,335,469.52,308.68,421,316.83c-58.66,9.84-111.32,42.86-166.56,63.67C180.29,314.87,71.1,247.15-25.41,266.57c-55.55,11.19-120.87,50.52-171.14,83Z"/><path class="cls-4" d="M761.84,440.68c-7.66,2.68-15.52,5.13-23.48,7.5-15.29-14.64-36.44-25.59-58.37-37-36.76-19.12-73.09-38-110.26-55.57-28.6-13.5-62.62-29.4-96.32-36.52,41.14,24,58.29,73.3,49.31,120.42a109,109,0,0,1-17.14,39.32H806c-12.92-13.39-26.16-26.47-38.69-40Z"/><path class="cls-4" d="M109.73,285.83c43.37,39.47,45,110.77,10.57,156a365.46,365.46,0,0,1-27.64,37H312.3c-24.21-30.64-44.85-63.52-59.6-99.81C212.6,343.74,162.48,308.08,109.73,285.83Z"/><path class="cls-4" d="M1349.6,455.13c-20.51-7.86-41-15.64-61.34-23.13-91.69-33.68-201.42-74.13-299.48-60.13,72.43,13.66,143.47,47.16,187.34,107h207.25A388.1,388.1,0,0,1,1349.6,455.13Z"/><rect class="cls-5" x="-196.55" y="478.84" width="1850.23" height="120.26"/><path class="cls-6" d="M-30.45,109.83a22.47,22.47,0,0,1,17.74-8.67,22.52,22.52,0,0,1,9.18,2A27.71,27.71,0,0,1,4.66,98,41.59,41.59,0,0,1,44.71,57.86,57.21,57.21,0,0,1,152,85.56c0,1.19,0,2.37-.12,3.54a20.81,20.81,0,0,1,17.33,12.16,13.86,13.86,0,0,1,11.24,8.57Z"/><path class="cls-7" d="M-12.71,101.16a22.52,22.52,0,0,1,9.18,2A27.71,27.71,0,0,1,4.66,98a42.29,42.29,0,0,1,.89-7.09c19.62,5.37,41.25,2.65,61.14-4.46,4.62-2.31,4.62-9.25,4.62-13.87C85.19,84.12,106,93.37,119.88,81.81c6.94-6.94,13.88-16.19,11.57-30.07a54.31,54.31,0,0,0-6.3-14.65A57.15,57.15,0,0,1,152,85.56c0,1.19,0,2.37-.12,3.54a20.81,20.81,0,0,1,17.33,12.16,13.86,13.86,0,0,1,11.24,8.57H-30.45A22.47,22.47,0,0,1-12.71,101.16Z"/><path class="cls-6" d="M215.56,252.44a9.25,9.25,0,0,1,6.91-3.09h.08a26.28,26.28,0,0,1,24.06-24.66A46.44,46.44,0,0,1,337,221.87a31.3,31.3,0,0,1,4.67-.39,30.93,30.93,0,0,1,27.63,17h.24a17,17,0,0,1,16.73,13.93Z"/><path class="cls-7" d="M259.41,237.56c2.31-2.32-2.22-13.13,2.41-17.76,13.87,41.49,58.3,15.55,58.3,15.55s9.93,4.69,10.76-5.24c-1.81-7.89-6.07-9.11-10.76-9.66,4.56-6.85,4.07-12.54,3-21.13A46.4,46.4,0,0,1,337,221.87a31.3,31.3,0,0,1,4.67-.39,30.93,30.93,0,0,1,27.63,17h.24a17,17,0,0,1,16.73,13.93H215.56a9.25,9.25,0,0,1,6.91-3.09h.08a26.19,26.19,0,0,1,2.74-10.2C234.85,245.83,251.13,245.83,259.41,237.56Z"/><path class="cls-8" d="M1259.3,477.47l116.84,122.4H-196.55V474.21S1259.3,475,1259.3,477.47Z"/><path class="cls-6" d="M877.58,353.43H533.53V474.21H877.58c56.1,0,128-13.33,128-41.83S941.58,353.43,877.58,353.43Z"/><path class="cls-9" d="M533.53,438.16V457.8H980.64c12.26-5.24,21-11.77,23.86-19.64Z"/><path class="cls-10" d="M1004.78,426.6H533.53v4.63h472A24.33,24.33,0,0,0,1004.78,426.6Z"/><rect class="cls-11" x="558.81" y="376.92" width="46.22" height="24.26"/><polygon class="cls-12" points="586.47 376.92 562.21 401.18 578.42 401.18 602.68 376.92 586.47 376.92"/><rect class="cls-10" x="558.81" y="376.92" width="46.22" height="2.89"/><rect class="cls-11" x="622.36" y="376.92" width="46.22" height="24.26"/><polygon class="cls-12" points="650.01 376.92 625.75 401.18 641.96 401.18 666.23 376.92 650.01 376.92"/><rect class="cls-10" x="622.36" y="376.92" width="46.22" height="2.89"/><rect class="cls-11" x="685.91" y="376.92" width="46.22" height="24.26"/><polygon class="cls-12" points="713.56 376.92 689.3 401.18 705.51 401.18 729.78 376.92 713.56 376.92"/><rect class="cls-10" x="685.91" y="376.92" width="46.22" height="2.89"/><rect class="cls-11" x="749.46" y="376.92" width="46.22" height="24.26"/><polygon class="cls-12" points="777.11 376.92 752.85 401.18 769.06 401.18 793.33 376.92 777.11 376.92"/><rect class="cls-10" x="749.46" y="376.92" width="46.22" height="2.89"/><rect class="cls-11" x="813" y="376.92" width="46.22" height="24.26"/><polygon class="cls-12" points="840.66 376.92 816.39 401.18 832.61 401.18 856.87 376.92 840.66 376.92"/><rect class="cls-10" x="813" y="376.92" width="46.22" height="2.89"/><path class="cls-11" d="M957.18,376.92H905.44v24.26h83.08A151.82,151.82,0,0,0,957.18,376.92Z"/><path class="cls-12" d="M957.18,376.92h-8.49l-24.26,24.26h26.88l17-17Q963,380.41,957.18,376.92Z"/><path class="cls-10" d="M957.18,376.92H905.44v2.89h56.43C960.34,378.83,958.77,377.87,957.18,376.92Z"/><rect class="cls-6" x="168.49" y="353.43" width="344.05" height="120.79"/><rect class="cls-9" x="168.49" y="438.16" width="344.05" height="19.64"/><g class="cls-13"><rect class="cls-14" x="168.49" y="426.6" width="344.05" height="4.62"/></g><rect class="cls-11" x="190.31" y="376.92" width="46.22" height="24.26"/><polygon class="cls-12" points="217.96 376.92 193.7 401.18 209.91 401.18 234.18 376.92 217.96 376.92"/><rect class="cls-10" x="190.31" y="376.92" width="46.22" height="2.89"/><rect class="cls-11" x="253.86" y="376.92" width="46.22" height="24.26"/><polygon class="cls-12" points="281.51 376.92 257.25 401.18 273.46 401.18 297.72 376.92 281.51 376.92"/><rect class="cls-10" x="253.86" y="376.92" width="46.22" height="2.89"/><rect class="cls-11" x="317.4" y="376.92" width="46.22" height="24.26"/><polygon class="cls-12" points="345.06 376.92 320.79 401.18 337.01 401.18 361.27 376.92 345.06 376.92"/><rect class="cls-10" x="317.4" y="376.92" width="46.22" height="2.89"/><rect class="cls-11" x="380.95" y="376.92" width="46.22" height="24.26"/><polygon class="cls-12" points="408.6 376.92 384.34 401.18 400.55 401.18 424.82 376.92 408.6 376.92"/><rect class="cls-10" x="380.95" y="376.92" width="46.22" height="2.89"/><rect class="cls-11" x="444.5" y="376.92" width="46.21" height="24.26"/><polygon class="cls-12" points="472.15 376.92 447.89 401.18 464.1 401.18 488.37 376.92 472.15 376.92"/><rect class="cls-10" x="444.5" y="376.92" width="46.21" height="2.89"/><rect class="cls-15" x="512.54" y="459.63" width="20.99" height="9.53"/><rect class="cls-15" x="519.71" y="457.8" width="6.65" height="1.83"/><rect class="cls-6" x="-196.55" y="353.43" width="344.05" height="120.79"/><rect class="cls-9" x="-196.55" y="438.16" width="344.05" height="19.64"/><g class="cls-13"><rect class="cls-14" x="-196.55" y="426.6" width="344.05" height="4.62"/></g><rect class="cls-11" x="15.91" y="376.92" width="46.22" height="24.26"/><polygon class="cls-12" points="43.56 376.92 19.3 401.18 35.52 401.18 59.78 376.92 43.56 376.92"/><rect class="cls-10" x="15.91" y="376.92" width="46.22" height="2.89"/><rect class="cls-11" x="79.46" y="376.92" width="46.22" height="24.26"/><polygon class="cls-12" points="107.11 376.92 82.85 401.18 99.06 401.18 123.33 376.92 107.11 376.92"/><rect class="cls-10" x="79.46" y="376.92" width="46.22" height="2.89"/><rect class="cls-15" x="147.5" y="459.63" width="20.99" height="9.53"/><rect class="cls-15" x="154.67" y="457.8" width="6.65" height="1.83"/><rect class="cls-6" x="873.76" y="181.97" width="261.48" height="50.6" rx="25.3" ry="25.3"/><text class="cls-16" transform="translate(873.76 126.34)">TRAIN</text></g></g></svg>